<mxfile host="app.diagrams.net" modified="2023-02-02T05:35:25.168Z" agent="5.0 (Windows NT 10.0; Win64; x64) AppleWebKit/537.36 (KHTML, like Gecko) Chrome/109.0.0.0 Safari/537.36" etag="4rksvm0goxXyIW1lJCed" version="20.8.14" type="github">
  <diagram name="第 1 页" id="Cq7Y0VMnuC14e4NLx5yX">
    <mxGraphModel dx="1049" dy="624" grid="1" gridSize="10" guides="1" tooltips="1" connect="1" arrows="1" fold="1" page="1" pageScale="1" pageWidth="827" pageHeight="1169" math="0" shadow="0">
      <root>
        <mxCell id="0" />
        <mxCell id="1" parent="0" />
        <mxCell id="R2jCOA0yDabyb9bNn_AD-3" style="edgeStyle=orthogonalEdgeStyle;rounded=0;orthogonalLoop=1;jettySize=auto;html=1;entryX=0;entryY=0.5;entryDx=0;entryDy=0;" edge="1" parent="1" source="R2jCOA0yDabyb9bNn_AD-1" target="R2jCOA0yDabyb9bNn_AD-2">
          <mxGeometry relative="1" as="geometry" />
        </mxCell>
        <mxCell id="R2jCOA0yDabyb9bNn_AD-1" value="Dataset" style="rounded=1;whiteSpace=wrap;html=1;" vertex="1" parent="1">
          <mxGeometry x="40" y="140" width="120" height="60" as="geometry" />
        </mxCell>
        <mxCell id="R2jCOA0yDabyb9bNn_AD-6" style="edgeStyle=orthogonalEdgeStyle;rounded=0;orthogonalLoop=1;jettySize=auto;html=1;startArrow=none;" edge="1" parent="1" source="R2jCOA0yDabyb9bNn_AD-10" target="R2jCOA0yDabyb9bNn_AD-4">
          <mxGeometry relative="1" as="geometry">
            <mxPoint x="350" y="170" as="targetPoint" />
          </mxGeometry>
        </mxCell>
        <mxCell id="R2jCOA0yDabyb9bNn_AD-12" style="edgeStyle=orthogonalEdgeStyle;rounded=0;orthogonalLoop=1;jettySize=auto;html=1;exitX=1;exitY=0.5;exitDx=0;exitDy=0;entryX=0;entryY=0.5;entryDx=0;entryDy=0;" edge="1" parent="1" source="R2jCOA0yDabyb9bNn_AD-2" target="R2jCOA0yDabyb9bNn_AD-10">
          <mxGeometry relative="1" as="geometry" />
        </mxCell>
        <mxCell id="R2jCOA0yDabyb9bNn_AD-2" value="LoadImageFromFile" style="rounded=1;whiteSpace=wrap;html=1;" vertex="1" parent="1">
          <mxGeometry x="190" y="140" width="120" height="60" as="geometry" />
        </mxCell>
        <mxCell id="R2jCOA0yDabyb9bNn_AD-8" style="edgeStyle=orthogonalEdgeStyle;rounded=0;orthogonalLoop=1;jettySize=auto;html=1;entryX=0;entryY=0.5;entryDx=0;entryDy=0;" edge="1" parent="1" source="R2jCOA0yDabyb9bNn_AD-4" target="R2jCOA0yDabyb9bNn_AD-5">
          <mxGeometry relative="1" as="geometry" />
        </mxCell>
        <mxCell id="R2jCOA0yDabyb9bNn_AD-4" value="Pipeline" style="rounded=1;whiteSpace=wrap;html=1;" vertex="1" parent="1">
          <mxGeometry x="480" y="140" width="120" height="60" as="geometry" />
        </mxCell>
        <mxCell id="R2jCOA0yDabyb9bNn_AD-5" value="PickxxInput" style="rounded=1;whiteSpace=wrap;html=1;" vertex="1" parent="1">
          <mxGeometry x="630" y="140" width="120" height="60" as="geometry" />
        </mxCell>
        <mxCell id="R2jCOA0yDabyb9bNn_AD-10" value="LoadAnnotations" style="rounded=1;whiteSpace=wrap;html=1;" vertex="1" parent="1">
          <mxGeometry x="333" y="140" width="120" height="60" as="geometry" />
        </mxCell>
        <mxCell id="R2jCOA0yDabyb9bNn_AD-13" value="Dataset 加载数据内部处理方法" style="text;html=1;strokeColor=none;fillColor=none;align=center;verticalAlign=middle;whiteSpace=wrap;rounded=0;" vertex="1" parent="1">
          <mxGeometry x="333" y="110" width="237" height="30" as="geometry" />
        </mxCell>
        <mxCell id="R2jCOA0yDabyb9bNn_AD-14" value="&lt;blockquote style=&quot;margin: 0 0 0 40px; border: none; padding: 0px;&quot;&gt;{&lt;br&gt;img_path:&lt;br&gt;img_label:&lt;br&gt;}&lt;/blockquote&gt;" style="rounded=0;whiteSpace=wrap;html=1;align=left;dashed=1;" vertex="1" parent="1">
          <mxGeometry x="40" y="205" width="150" height="140" as="geometry" />
        </mxCell>
        <mxCell id="R2jCOA0yDabyb9bNn_AD-15" value="&lt;blockquote style=&quot;margin: 0 0 0 40px; border: none; padding: 0px;&quot;&gt;{&lt;br&gt;img_path:&lt;br&gt;img_label:&lt;br&gt;&quot;img&quot;:&lt;br&gt;&quot;label&quot;:&lt;br&gt;&quot;height&quot;:&lt;br&gt;&quot;width&quot;:&lt;br&gt;......&lt;br&gt;}&lt;/blockquote&gt;" style="rounded=0;whiteSpace=wrap;html=1;align=left;dashed=1;" vertex="1" parent="1">
          <mxGeometry x="260" y="210" width="150" height="140" as="geometry" />
        </mxCell>
        <mxCell id="R2jCOA0yDabyb9bNn_AD-16" value="&lt;blockquote style=&quot;margin: 0 0 0 40px; border: none; padding: 0px;&quot;&gt;{&lt;br&gt;img_path:&lt;br&gt;img_label:&lt;br&gt;&quot;img&quot;:&lt;br&gt;&quot;img_xx&quot;:&lt;br&gt;&quot;img_xx&quot;:&lt;br&gt;&quot;label&quot;:&lt;br&gt;&quot;height&quot;:&lt;br&gt;&quot;width&quot;:&lt;br&gt;}&lt;/blockquote&gt;" style="rounded=0;whiteSpace=wrap;html=1;align=left;dashed=1;" vertex="1" parent="1">
          <mxGeometry x="460" y="205" width="155" height="140" as="geometry" />
        </mxCell>
        <mxCell id="R2jCOA0yDabyb9bNn_AD-17" value="&lt;blockquote style=&quot;margin: 0 0 0 40px; border: none; padding: 0px;&quot;&gt;{&lt;br&gt;inputs:&lt;br&gt;&quot;data_sample&quot;:&lt;br&gt;}&lt;/blockquote&gt;" style="rounded=0;whiteSpace=wrap;html=1;align=left;dashed=1;" vertex="1" parent="1">
          <mxGeometry x="630" y="210" width="140" height="130" as="geometry" />
        </mxCell>
      </root>
    </mxGraphModel>
  </diagram>
</mxfile>
